<svg width="42" height="42" viewBox="0 0 42 42" fill="none" xmlns="http://www.w3.org/2000/svg">
<circle cx="21" cy="21" r="18.375" fill="#FF3366"/>
<path d="M14.9092 14.2529C16.1777 14.2529 17.2061 13.2246 17.2061 11.9561C17.2061 10.6875 16.1777 9.65918 14.9092 9.65918C13.6407 9.65918 12.6123 10.6875 12.6123 11.9561C12.6123 13.2246 13.6407 14.2529 14.9092 14.2529Z" fill="white"/>
<path d="M10.1104 16.2217L9.31055 19.1543H11.9355C11.4092 21.2939 10.3072 25.7947 10.1104 26.6807C9.86426 27.7881 9.82318 30.9463 13.1455 30.9463C15.4644 30.9463 16.9434 29.4483 17.7684 28.2251L17.1445 30.7207H20.877L22.8252 22.835C23.1021 21.5229 23.7537 18.9902 26.1064 18.9902C28.9046 18.9902 27.8781 22.3037 27.375 23.9275C27.3545 23.9937 27.3349 24.057 27.3164 24.1172C26.9391 25.3477 26.5371 26.7832 26.5371 27.7676C26.5371 28.875 27.0498 30.9463 29.9209 30.9463C32.792 30.9463 34.0156 28.1025 34.2686 26.6807L32.8125 26.0859C32.71 26.8447 31.7871 28.4854 30.9258 28.4854C29.7466 28.4854 30.3389 26.4974 30.9711 24.3758C31.2514 23.4348 31.5396 22.4675 31.6846 21.6357C32.051 19.5328 31.6846 15.9551 28.0342 15.9551C25.767 15.9551 23.9867 17.9753 23.1397 19.3779L23.8506 16.2217H18.1699L17.3906 19.1543H20.0361C20.0361 19.1543 18.4662 25.5521 18.3647 25.7527C17.2983 27.8599 15.6854 28.5672 14.4785 28.4854C13.5105 28.4197 13.624 27.2549 13.8018 26.6807L16.4268 16.2217H10.1104Z" fill="white"/>
</svg>
