<svg width="42" height="42" viewBox="0 0 42 42" fill="none" xmlns="http://www.w3.org/2000/svg">
<circle cx="21" cy="21" r="18.375" fill="#FFFA37"/>
<path fill-rule="evenodd" clip-rule="evenodd" d="M27.596 10.7435C26.3288 9.14654 24.2383 7.875 21.0154 7.875C18.2557 7.90218 12.7362 9.42959 12.7362 15.3218C12.7362 16.1824 12.8043 17.3348 12.8639 18.1835C12.7937 18.1632 12.7075 18.125 12.5708 18.0595L12.5518 18.0504C12.3101 17.9343 11.9427 17.7579 11.4316 17.7579C10.9153 17.7579 10.4161 17.9601 10.0456 18.26C9.67718 18.558 9.3625 19.0161 9.3625 19.5701C9.3625 20.2629 9.75241 20.7229 10.2083 21.0177C10.6133 21.2797 11.1239 21.447 11.5282 21.5794L11.5681 21.5925C12.0008 21.7344 12.3179 21.8426 12.5366 21.9789C12.7068 22.085 12.7326 22.1521 12.7358 22.2159C12.7336 22.225 12.7284 22.2445 12.7171 22.2763C12.6937 22.3419 12.6549 22.4305 12.5982 22.5413C12.485 22.7623 12.32 23.0341 12.1237 23.3239C11.7277 23.9087 11.2444 24.5083 10.8834 24.8556C10.5273 25.1981 9.94301 25.6239 9.33209 25.9627C9.02912 26.1307 8.73285 26.2699 8.46782 26.3656C8.19423 26.4643 7.99374 26.5019 7.86985 26.5019C7.77179 26.5019 7.68691 26.5221 7.64986 26.5314C7.5978 26.5444 7.54391 26.5616 7.4906 26.5816C7.38488 26.6214 7.25886 26.6809 7.13405 26.7649C6.89557 26.9254 6.5625 27.249 6.5625 27.7596C6.5625 28.0261 6.62506 28.2517 6.73319 28.4474C6.82784 28.6187 6.94952 28.7487 7.01955 28.8235L7.02994 28.8346L7.04932 28.8554C7.43446 29.2698 8.07198 29.5581 8.69087 29.7559C9.22266 29.9259 9.81723 30.0525 10.3966 30.1286C10.4048 30.1659 10.4133 30.2062 10.4227 30.2503L10.4257 30.2645C10.4622 30.4365 10.5105 30.6644 10.5816 30.8744C10.6488 31.0727 10.7704 31.3657 11.0193 31.5745C11.3363 31.8404 11.7509 31.8673 12.0215 31.8662C12.3119 31.865 12.6509 31.8241 12.9727 31.7853L13.0001 31.782C13.4528 31.7275 13.9264 31.6711 14.4169 31.6711C15.3121 31.6711 15.8858 32.0451 16.7861 32.6599L16.7922 32.6641C17.104 32.877 17.4532 33.1154 17.85 33.35C19.1785 34.135 20.2579 34.1282 20.8697 34.1244C20.91 34.1241 20.9483 34.1239 20.9846 34.1239C21.0208 34.1239 21.0593 34.1241 21.0999 34.1244C21.7127 34.1283 22.8208 34.1354 24.15 33.35C24.5468 33.1154 24.896 32.877 25.2078 32.6641L25.2139 32.6599C26.1142 32.0451 26.6879 31.6711 27.5831 31.6711C28.0736 31.6711 28.5472 31.7275 28.9999 31.782L29.0273 31.7853C29.3491 31.8241 29.6881 31.865 29.9785 31.8662C30.2491 31.8673 30.6637 31.8404 30.9807 31.5745C31.2296 31.3657 31.3512 31.0727 31.4184 30.8744C31.4895 30.6644 31.5378 30.4366 31.5743 30.2645L31.5773 30.2503C31.5867 30.2062 31.5952 30.1659 31.6034 30.1286C32.1828 30.0525 32.7773 29.9259 33.3091 29.7559C33.928 29.5581 34.5656 29.2697 34.9507 28.8553L34.9701 28.8346L34.9804 28.8235C35.0504 28.7487 35.1721 28.6187 35.2668 28.4474C35.3749 28.2517 35.4375 28.0261 35.4375 27.7596C35.4375 27.249 35.1044 26.9254 34.866 26.7649C34.7411 26.6809 34.6151 26.6214 34.5094 26.5816C34.4561 26.5616 34.4022 26.5444 34.3501 26.5314C34.3131 26.5221 34.2282 26.5019 34.1301 26.5019C34.0063 26.5019 33.8058 26.4643 33.5322 26.3656C33.2671 26.2699 32.9709 26.1307 32.6679 25.9627C32.057 25.6239 31.4727 25.1981 31.1166 24.8556C30.7556 24.5083 30.2723 23.9087 29.8763 23.3239C29.68 23.0341 29.515 22.7623 29.4018 22.5413C29.3451 22.4305 29.3063 22.3419 29.2829 22.2763C29.2716 22.2445 29.2664 22.225 29.2642 22.2159C29.2674 22.1521 29.2932 22.085 29.4634 21.9789C29.6821 21.8426 29.9992 21.7344 30.4319 21.5925L30.4718 21.5794C30.8761 21.447 31.3867 21.2797 31.7917 21.0177C32.2476 20.7229 32.6375 20.2629 32.6375 19.5701C32.6375 19.0161 32.3228 18.558 31.9545 18.26C31.5839 17.9601 31.0847 17.7579 30.5684 17.7579C30.0573 17.7579 29.6899 17.9343 29.4482 18.0504L29.4292 18.0595C29.2925 18.125 29.2063 18.1632 29.1361 18.1835C29.1957 17.3348 29.2638 16.1824 29.2638 15.3218C29.2638 14.1536 28.8391 12.31 27.596 10.7435ZM15.4655 11.5142C14.4141 12.8303 14.0539 14.3931 14.0539 15.3218C14.0539 16.183 14.1268 17.3792 14.1884 18.237C14.2088 18.5219 14.1504 18.854 13.9016 19.1176C13.6498 19.3845 13.3072 19.4711 13.0011 19.4711C12.5592 19.4711 12.2231 19.3094 12.008 19.2059L11.9831 19.194C11.7432 19.0789 11.617 19.0254 11.4316 19.0254C11.2629 19.0254 11.057 19.0979 10.8937 19.23C10.7281 19.364 10.6801 19.4951 10.6801 19.5701C10.6801 19.7228 10.7365 19.8319 10.9436 19.9659C11.1881 20.1241 11.5366 20.243 11.9934 20.3928L12.0331 20.4058C12.4125 20.5301 12.8823 20.6841 13.2531 20.9152C13.6693 21.1746 14.0539 21.5916 14.0539 22.2339C14.0539 22.4023 14.0073 22.5644 13.9636 22.6871C13.9162 22.8203 13.8521 22.961 13.7803 23.1013C13.6363 23.3825 13.4417 23.7 13.2277 24.0159C12.8032 24.6427 12.2636 25.3205 11.8151 25.7519C11.3617 26.188 10.6799 26.6783 9.99021 27.0608C9.64289 27.2534 9.28027 27.4262 8.93061 27.5524C8.61762 27.6653 8.28029 27.7538 7.95669 27.7676C7.94863 27.771 7.93972 27.7751 7.93038 27.7798C7.91546 27.7873 7.90151 27.7954 7.88934 27.8036L7.88311 27.8079C7.88433 27.8166 7.88573 27.8231 7.88689 27.8276C7.88948 27.8377 7.89255 27.845 7.89669 27.8525C7.90937 27.8754 7.92938 27.901 8.01032 27.9877L8.03156 28.0105C8.17737 28.1674 8.53671 28.371 9.10632 28.553C9.64881 28.7264 10.2903 28.8516 10.8964 28.9091C11.1996 28.9379 11.3744 29.1274 11.4484 29.2295C11.5245 29.3346 11.5681 29.4455 11.5935 29.5192C11.6428 29.6617 11.6799 29.8373 11.7093 29.9758L11.7137 29.9968C11.7538 30.1855 11.7888 30.3469 11.8345 30.4818C11.8506 30.5295 11.8655 30.5658 11.8784 30.5925C11.9073 30.5958 11.9516 30.5989 12.0158 30.5986C12.2945 30.5975 12.5735 30.556 12.8497 30.5227C13.2914 30.4695 13.8381 30.4036 14.4169 30.4036C15.7593 30.4036 16.6451 31.0088 17.5008 31.5935L17.5489 31.6263C17.8655 31.8426 18.1828 32.059 18.5397 32.2699C19.5454 32.8642 20.3105 32.8599 20.8696 32.8568C20.9089 32.8566 20.9473 32.8563 20.9846 32.8563C21.0215 32.8563 21.0596 32.8566 21.0988 32.8568C21.664 32.8598 22.4549 32.8641 23.4603 32.2699C23.8172 32.059 24.1345 31.8426 24.4511 31.6263L24.4992 31.5935C25.3549 31.0088 26.2407 30.4036 27.5831 30.4036C28.1619 30.4036 28.7086 30.4695 29.1503 30.5227L29.1637 30.5243C29.5209 30.5673 29.7823 30.5978 29.9842 30.5986C30.0484 30.5989 30.0927 30.5958 30.1216 30.5925C30.1345 30.5658 30.1494 30.5295 30.1655 30.4818C30.2112 30.3469 30.2462 30.1855 30.2863 29.9968L30.2907 29.9757C30.3201 29.8373 30.3572 29.6617 30.4065 29.5192C30.4319 29.4455 30.4755 29.3346 30.5516 29.2295C30.6256 29.1274 30.8004 28.9379 31.1036 28.9091C31.7097 28.8516 32.3512 28.7264 32.8937 28.553C33.4633 28.371 33.8226 28.1674 33.9684 28.0105L33.9897 27.9877C34.0706 27.901 34.0906 27.8754 34.1033 27.8525C34.1075 27.845 34.1105 27.8377 34.1131 27.8276C34.1143 27.8231 34.1157 27.8166 34.1169 27.8079L34.1107 27.8036C34.0985 27.7954 34.0845 27.7873 34.0696 27.7798C34.0603 27.7751 34.0514 27.771 34.0433 27.7676C33.7197 27.7538 33.3824 27.6653 33.0694 27.5524C32.7197 27.4262 32.3571 27.2534 32.0098 27.0608C31.3201 26.6783 30.6383 26.188 30.1849 25.7519C29.7364 25.3205 29.1968 24.6427 28.7723 24.0159C28.5583 23.7 28.3637 23.3825 28.2197 23.1013C28.1479 22.961 28.0838 22.8203 28.0364 22.6871C27.9927 22.5644 27.9461 22.4023 27.9461 22.2339C27.9461 21.5916 28.3307 21.1746 28.7469 20.9152C29.1177 20.6841 29.5875 20.5301 29.9669 20.4058L30.0066 20.3928C30.4634 20.243 30.8119 20.1241 31.0564 19.9659C31.2635 19.8319 31.3199 19.7228 31.3199 19.5701C31.3199 19.4951 31.2719 19.364 31.1063 19.23C30.943 19.0979 30.7371 19.0254 30.5684 19.0254C30.383 19.0254 30.2568 19.0789 30.0169 19.194L29.992 19.206C29.7769 19.3094 29.4408 19.4711 28.9989 19.4711C28.6928 19.4711 28.3502 19.3845 28.0984 19.1176C27.8496 18.854 27.7912 18.5219 27.8116 18.237C27.8732 17.3792 27.9461 16.183 27.9461 15.3218C27.9461 14.3907 27.5923 12.8277 26.5487 11.5126C25.5292 10.2278 23.825 9.14254 21.0154 9.14254C18.2056 9.14254 16.4929 10.2282 15.4655 11.5142Z" fill="black"/>
<path fill-rule="evenodd" clip-rule="evenodd" d="M15.4655 11.5142C14.4141 12.8303 14.0539 14.3931 14.0539 15.3218C14.0539 16.183 14.1268 17.3792 14.1884 18.237C14.2088 18.5219 14.1504 18.854 13.9016 19.1176C13.6498 19.3845 13.3072 19.4711 13.0011 19.4711C12.5592 19.4711 12.2231 19.3094 12.008 19.2059L11.9831 19.194C11.7432 19.0789 11.6171 19.0254 11.4316 19.0254C11.2629 19.0254 11.057 19.0979 10.8937 19.23C10.7281 19.364 10.6802 19.4951 10.6802 19.5701C10.6802 19.7228 10.7365 19.8319 10.9436 19.9659C11.1881 20.1241 11.5366 20.243 11.9934 20.3928L12.0331 20.4058C12.4125 20.5301 12.8823 20.6841 13.2531 20.9152C13.6693 21.1746 14.0539 21.5916 14.0539 22.2339C14.0539 22.4023 14.0073 22.5644 13.9636 22.6871C13.9162 22.8203 13.8521 22.961 13.7803 23.1013C13.6363 23.3825 13.4417 23.7 13.2277 24.0159C12.8032 24.6427 12.2636 25.3205 11.8151 25.7519C11.3617 26.188 10.6799 26.6783 9.99022 27.0608C9.6429 27.2534 9.28028 27.4262 8.93063 27.5524C8.61763 27.6653 8.28031 27.7538 7.9567 27.7676C7.94864 27.771 7.93973 27.7751 7.93039 27.7798C7.91548 27.7873 7.90152 27.7954 7.88935 27.8036L7.88312 27.8079C7.88434 27.8166 7.88574 27.8231 7.8869 27.8276C7.88949 27.8377 7.89256 27.845 7.8967 27.8525C7.90938 27.8754 7.92939 27.901 8.01033 27.9877L8.03157 28.0105C8.17738 28.1674 8.53673 28.371 9.10634 28.553C9.64882 28.7264 10.2903 28.8516 10.8964 28.9091C11.1996 28.9379 11.3744 29.1274 11.4484 29.2295C11.5245 29.3346 11.5681 29.4455 11.5935 29.5192C11.6428 29.6617 11.6799 29.8373 11.7093 29.9758L11.7137 29.9968C11.7538 30.1855 11.7888 30.3469 11.8345 30.4818C11.8506 30.5295 11.8655 30.5658 11.8784 30.5925C11.9073 30.5958 11.9516 30.5989 12.0159 30.5986C12.2945 30.5975 12.5736 30.556 12.8497 30.5227C13.2914 30.4695 13.8381 30.4036 14.4169 30.4036C15.7593 30.4036 16.6451 31.0088 17.5008 31.5935L17.5489 31.6263C17.8655 31.8426 18.1828 32.059 18.5397 32.2699C19.5454 32.8642 20.3106 32.8599 20.8696 32.8568C20.909 32.8566 20.9473 32.8563 20.9846 32.8563C21.0216 32.8563 21.0596 32.8566 21.0988 32.8568C21.664 32.8598 22.4549 32.8641 23.4603 32.2699C23.8172 32.059 24.1345 31.8426 24.4512 31.6263L24.4992 31.5935C25.3549 31.0088 26.2407 30.4036 27.5831 30.4036C28.1619 30.4036 28.7086 30.4695 29.1504 30.5227L29.1637 30.5243C29.5209 30.5673 29.7823 30.5978 29.9842 30.5986C30.0484 30.5989 30.0927 30.5958 30.1217 30.5925C30.1345 30.5658 30.1494 30.5295 30.1655 30.4818C30.2112 30.3469 30.2462 30.1855 30.2863 29.9968L30.2908 29.9757C30.3201 29.8373 30.3573 29.6617 30.4065 29.5192C30.4319 29.4455 30.4755 29.3346 30.5516 29.2295C30.6256 29.1274 30.8004 28.9379 31.1036 28.9091C31.7097 28.8516 32.3512 28.7264 32.8937 28.553C33.4633 28.371 33.8226 28.1674 33.9684 28.0105L33.9897 27.9877C34.0706 27.901 34.0906 27.8754 34.1033 27.8525C34.1075 27.845 34.1105 27.8377 34.1131 27.8276C34.1143 27.8231 34.1157 27.8166 34.1169 27.8079L34.1107 27.8036C34.0985 27.7954 34.0845 27.7873 34.0696 27.7798C34.0603 27.7751 34.0514 27.771 34.0433 27.7676C33.7197 27.7538 33.3824 27.6653 33.0694 27.5524C32.7197 27.4262 32.3571 27.2534 32.0098 27.0608C31.3202 26.6783 30.6383 26.188 30.1849 25.7519C29.7364 25.3205 29.1968 24.6427 28.7723 24.0159C28.5583 23.7 28.3637 23.3825 28.2198 23.1013C28.1479 22.961 28.0838 22.8203 28.0364 22.6871C27.9927 22.5644 27.9462 22.4023 27.9462 22.2339C27.9462 21.5916 28.3307 21.1746 28.7469 20.9152C29.1177 20.6841 29.5876 20.5301 29.9669 20.4058L30.0067 20.3928C30.4635 20.243 30.8119 20.1241 31.0565 19.9659C31.2635 19.8319 31.3199 19.7228 31.3199 19.5701C31.3199 19.4951 31.2719 19.364 31.1063 19.23C30.943 19.0979 30.7371 19.0254 30.5684 19.0254C30.383 19.0254 30.2568 19.0789 30.0169 19.194L29.992 19.206C29.777 19.3094 29.4408 19.4711 28.9989 19.4711C28.6929 19.4711 28.3503 19.3845 28.0984 19.1176C27.8496 18.854 27.7912 18.5219 27.8117 18.237C27.8732 17.3792 27.9462 16.183 27.9462 15.3218C27.9462 14.3907 27.5923 12.8278 26.5487 11.5126C25.5292 10.2278 23.825 9.14254 21.0155 9.14254C18.2056 9.14254 16.4929 10.2282 15.4655 11.5142Z" fill="white"/>
</svg>
